<svg id="visual" viewBox="0 0 960 100" width="960" height="100" xmlns="http://www.w3.org/2000/svg" xmlns:xlink="http://www.w3.org/1999/xlink" version="1.1"><path d="M0 52L160 52L320 29L480 54L640 38L800 27L960 33L960 0L800 0L640 0L480 0L320 0L160 0L0 0Z" fill="#db1717"></path><path d="M0 66L160 75L320 49L480 71L640 67L800 63L960 55L960 31L800 25L640 36L480 52L320 27L160 50L0 50Z" fill="#76251a"></path><path d="M0 101L160 101L320 101L480 101L640 101L800 101L960 101L960 53L800 61L640 65L480 69L320 47L160 73L0 64Z" fill="#181818"></path></svg>